<?xml version="1.0" encoding="utf-8"?>
<!-- Generator: Adobe Illustrator 24.0.0, SVG Export Plug-In . SVG Version: 6.00 Build 0)  -->
<svg version="1.1" id="Capa_1" xmlns="http://www.w3.org/2000/svg" xmlns:xlink="http://www.w3.org/1999/xlink" x="0px" y="0px"
	 viewBox="0 0 540.5 543.7" style="enable-background:new 0 0 540.5 543.7;" xml:space="preserve">
<style type="text/css">
	.st0{fill:#FFFFFF;}
</style>
<g>
	<path class="st0" d="M271.9,20c34,0,67,6.7,98,19.8c30,12.7,56.9,30.8,80.1,54c23.1,23.1,41.3,50.1,54,80.1
		c13.1,31,19.8,64,19.8,98s-6.7,67-19.8,98c-12.7,30-30.8,56.9-54,80.1c-23.1,23.1-50.1,41.3-80.1,54c-31,13.1-64,19.8-98,19.8
		s-67-6.7-98-19.8c-30-12.7-56.9-30.8-80.1-54c-23.1-23.1-41.3-50.1-54-80.1c-13.1-31-19.8-64-19.8-98s6.7-67,19.8-98
		c12.7-30,30.8-56.9,54-80.1s50.1-41.3,80.1-54C204.9,26.7,237.8,20,271.9,20 M271.9,0C121.7,0,0,121.7,0,271.9
		s121.7,271.9,271.9,271.9S543.7,422,543.7,271.9S422,0,271.9,0L271.9,0z"/>
</g>
<g>
	<path class="st0" d="M334.6,146.4h-32.6c-36.5,0-60.2,24.2-60.2,61.8v28.4h-32.6c-2.9,0-5.2,2.3-5.2,5.2v41.2
		c0,2.9,2.3,5.2,5.2,5.2h32.6v104c0,2.9,2.3,5.2,5.2,5.2h42.7c2.9,0,5.2-2.3,5.2-5.2V287.9h38.3c2.9,0,5.2-2.3,5.2-5.2v-41.2
		c0-1.3-0.5-2.6-1.6-3.6c-1-1-2.3-1.6-3.6-1.6h-38.6v-24c0-11.5,2.9-17.5,17.7-17.5h21.9c2.9,0,5.2-2.3,5.2-5.2v-38
		C339.6,148.7,337.5,146.4,334.6,146.4z"/>
</g>
</svg>
