<?xml version="1.0" encoding="utf-8"?>
<!-- Generator: Adobe Illustrator 24.0.0, SVG Export Plug-In . SVG Version: 6.00 Build 0)  -->
<svg version="1.1" id="Layer_1" xmlns="http://www.w3.org/2000/svg" xmlns:xlink="http://www.w3.org/1999/xlink" x="0px" y="0px"
	 viewBox="0 0 543.7 543.7" style="enable-background:new 0 0 543.7 543.7;" xml:space="preserve">
<style type="text/css">
	.st0{fill:#FFFFFF;}
</style>
<g>
	<path class="st0" d="M271.9,20c34,0,67,6.7,98,19.8c30,12.7,56.9,30.8,80.1,54c23.1,23.1,41.3,50.1,54,80.1
		c13.1,31,19.8,64,19.8,98s-6.7,67-19.8,98c-12.7,30-30.8,56.9-54,80.1c-23.1,23.1-50.1,41.3-80.1,54c-31,13.1-64,19.8-98,19.8
		s-67-6.7-98-19.8c-30-12.7-56.9-30.8-80.1-54c-23.1-23.1-41.3-50.1-54-80.1c-13.1-31-19.8-64-19.8-98s6.7-67,19.8-98
		c12.7-30,30.8-56.9,54-80.1s50.1-41.3,80.1-54C204.9,26.7,237.8,20,271.9,20 M271.9,0C121.7,0,0,121.7,0,271.9
		s121.7,271.9,271.9,271.9S543.7,422,543.7,271.9S422,0,271.9,0L271.9,0z"/>
</g>
<g>
	<path class="st0" d="M327.9,146.4H215.6c-38.3,0-69.3,31-69.3,69.3v112.4c0,38.1,31,69.3,69.3,69.3h112.4c38.1,0,69.3-31,69.3-69.3
		V215.6C397.2,177.4,366,146.4,327.9,146.4z M374.9,327.9c0,26-21.1,47-47,47H215.6c-26,0-47-21.1-47-47V215.6c0-26,21.1-47,47-47
		h112.4c26,0,47,21.1,47,47L374.9,327.9L374.9,327.9z"/>
	<path class="st0" d="M271.7,207.2c-35.6,0-64.5,28.9-64.5,64.5s28.9,64.7,64.7,64.7s64.7-28.9,64.7-64.7
		C336.4,236.1,307.4,207.2,271.7,207.2z M271.7,314.1c-23.3,0-42.4-19-42.4-42.4c0.1-23.3,19.1-42.3,42.4-42.3s42.4,19,42.4,42.4
		C314.1,295.1,295.1,314.1,271.7,314.1z"/>
	<path class="st0" d="M339,188.4c-4.3,0-8.5,1.8-11.6,4.7s-4.7,7.3-4.7,11.6s1.8,8.5,4.7,11.6c3,3,7.3,4.7,11.6,4.7
		c4.3,0,8.5-1.8,11.6-4.7s4.7-7.3,4.7-11.6s-1.8-8.5-4.7-11.6C347.6,190,343.3,188.4,339,188.4z"/>
</g>
</svg>
