<?xml version="1.0" encoding="utf-8"?>
<!-- Generator: Adobe Illustrator 24.0.0, SVG Export Plug-In . SVG Version: 6.00 Build 0)  -->
<svg version="1.1" id="Capa_1" xmlns="http://www.w3.org/2000/svg" xmlns:xlink="http://www.w3.org/1999/xlink" x="0px" y="0px"
	 viewBox="0 0 543.7 543.7" style="enable-background:new 0 0 543.7 543.7;" xml:space="preserve">
<style type="text/css">
	.st0{fill:#FFFFFF;}
</style>
<g>
	<g>
		<path class="st0" d="M387,197.6c-1.2,0.4-2.4,0.7-3.6,1c-7.4,1.8-8.1-0.6-2.7-6c2.4-2.4,4.5-5.1,6.3-7.9c4.1-6.4,0.5-9.2-6.4-6.2
			c-2.5,1.1-5,2-7.6,2.9c-7.2,2.4-17.4-1.2-23.8-5.3c-8.1-5.1-17.3-7.7-27.6-7.7c-14.4,0-26.8,5.1-37,15.3s-15.3,22.5-15.3,37
			c0,2,0.1,4,0.3,6c0.4,3.3-5.2,5.7-12.7,4.6c-16.3-2.3-31.8-7.2-46.4-14.8c-14.6-7.5-27.4-16.9-38.5-28.3
			c-5.3-5.4-12.5-4.9-14.5,2.4c-1.2,4.4-1.8,9-1.8,13.7c0,9,2.1,17.3,6.3,24.9c2.1,3.8,4.5,7.2,7.4,10.3c4.7,5.2,4,8.2-2.6,6.3
			c-6.6-1.8-11.4-4.6-11.4-4.4c0,0.2,0,0.3,0,0.3c0,12.6,4,23.7,11.9,33.2c4.9,5.9,10.6,10.4,17,13.6c6.8,3.4,10,5.3,6.2,5.8
			c-2.3,0.3-4.6,0.4-6.9,0.4c-1.6,0-3.2-0.1-4.9-0.2c-2.7-0.2-3.2,5.4,0.9,11.8c3.3,5.1,7.5,9.5,12.6,13.4
			c5.2,3.9,10.8,6.7,16.8,8.5c7.3,2.1,8.8,5.9,2.2,9.8c-16.1,9.7-34,14.5-53.6,14.5c-2.2,0-4.3,0-6.3-0.1c-3.5-0.2-1.2,2.9,5.6,6.4
			c21,11,43.8,16.5,68.4,16.5c18.5,0,36-2.9,52.3-8.8c16.3-5.9,30.2-13.8,41.7-23.6c11.6-9.9,21.5-21.2,29.9-34
			c8.4-12.8,14.6-26.2,18.7-40.2c4.1-14,6.2-28,6.2-42c0-1.3,0-2.4,0-3.4c0-1.9,4.9-7,10.5-12.1c2.5-2.3,4.9-4.8,7.2-7.4
			C396.5,198.1,394.3,195.5,387,197.6z"/>
	</g>
</g>
<g>
	<path class="st0" d="M271.9,20c34,0,67,6.7,98,19.8c30,12.7,56.9,30.8,80.1,54c23.1,23.1,41.3,50.1,54,80.1
		c13.1,31,19.8,64,19.8,98s-6.7,67-19.8,98c-12.7,30-30.8,56.9-54,80.1c-23.1,23.1-50.1,41.3-80.1,54c-31,13.1-64,19.8-98,19.8
		s-67-6.7-98-19.8c-30-12.7-56.9-30.8-80.1-54c-23.1-23.1-41.3-50.1-54-80.1c-13.1-31-19.8-64-19.8-98s6.7-67,19.8-98
		c12.7-30,30.8-56.9,54-80.1c23.1-23.1,50.1-41.3,80.1-54C204.9,26.7,237.8,20,271.9,20 M271.9,0C121.7,0,0,121.7,0,271.9
		s121.7,271.9,271.9,271.9S543.7,422,543.7,271.9S422,0,271.9,0L271.9,0z"/>
</g>
</svg>
